<?xml version="1.0" encoding="UTF-8"?>
<svg width="18px" height="18px" viewBox="0 0 18 18" version="1.1" xmlns="http://www.w3.org/2000/svg" xmlns:xlink="http://www.w3.org/1999/xlink">
    <!-- Generator: Sketch 52.4 (67378) - http://www.bohemiancoding.com/sketch -->
    <title>close</title>
    <desc>Created with Sketch.</desc>
    <g id="Page-1" stroke="none" stroke-width="1" fill="none" fill-rule="evenodd">
        <path d="M10.0738457,9 L15.8515566,3.22228907 C16.0494811,3.02436457 16.0494811,2.70431644 15.8515566,2.50639194 L15.4936081,2.14844337 C15.2956836,1.95051888 14.9756354,1.95051888 14.7777109,2.14844337 L9,7.92615431 L3.22228907,2.15265453 C3.02436457,1.95473003 2.70431644,1.95473003 2.50639194,2.15265453 L2.14844337,2.5106031 C1.95051888,2.7085276 1.95051888,3.02857573 2.14844337,3.22650023 L7.92615431,9 L2.15265453,14.7777109 C1.95473003,14.9756354 1.95473003,15.2956836 2.15265453,15.4936081 L2.5106031,15.8515566 C2.7085276,16.0494811 3.02857573,16.0494811 3.22650023,15.8515566 L9,10.0738457 L14.7777109,15.8515566 C14.9756354,16.0494811 15.2956836,16.0494811 15.4936081,15.8515566 L15.8515566,15.4936081 C16.0494811,15.2956836 16.0494811,14.9756354 15.8515566,14.7777109 L10.0738457,9 Z" id="cancel" fill="#FFFFFF" fill-rule="nonzero"></path>
    </g>
</svg>